# Blender 4.3.2
# www.blender.org
mtllib level01 — top _ bottom.mtl
o Plane.016
v -11.880548 5.064746 -2.026041
v -7.661898 5.064746 -2.026041
v -11.880548 5.064744 2.193451
v -7.661898 5.064744 2.193451
v -11.880548 4.847307 -2.026041
v -7.661898 4.847307 -2.026041
v -11.880548 4.847305 2.193451
v -7.661898 4.847305 2.193451
vn -0.0000 1.0000 -0.0000
vn -0.0000 -1.0000 -0.0000
vn 1.0000 -0.0000 -0.0000
vn -1.0000 -0.0000 -0.0000
vn -0.0000 -0.0000 1.0000
vn -0.0000 -0.0000 -1.0000
vt 0.471997 0.050175
vt 0.471997 0.500000
vt 0.022262 0.500000
vt 0.022262 0.050175
vt 0.518503 0.050175
vt 0.968238 0.050175
vt 0.968238 0.500000
vt 0.518503 0.500000
vt 0.073346 0.531990
vt 0.096526 0.531990
vt 0.096526 0.981815
vt 0.073346 0.981815
vt 0.050165 0.531990
vt 0.073346 0.531990
vt 0.050165 0.981815
vt 0.119706 0.981725
vt 0.096526 0.981725
vt 0.096526 0.531990
vt 0.119706 0.531990
vt 0.142887 0.981725
vt 0.119706 0.981725
vt 0.119706 0.531990
vt 0.142887 0.531990
s 0
usemtl level01—top_/_bottom
f 1/1/1 3/2/1 4/3/1 2/4/1
f 5/5/2 6/6/2 8/7/2 7/8/2
f 4/9/3 8/10/3 6/11/3 2/12/3
f 1/13/4 5/14/4 7/12/4 3/15/4
f 3/16/5 7/17/5 8/18/5 4/19/5
f 2/20/6 6/21/6 5/22/6 1/23/6
