# Blender 4.3.2
# www.blender.org
mtllib level01 — Pillar.mtl
o Cube
v -12.287872 0.231572 -2.026041
v -12.287872 4.847307 -2.026041
v -12.287872 0.231572 -2.432525
v -12.287872 4.847307 -2.432525
v -11.881390 0.231572 -2.026041
v -11.881390 4.847307 -2.026041
v -11.881390 0.231572 -2.432525
v -11.881390 4.847307 -2.432525
vn -1.0000 -0.0000 -0.0000
vn -0.0000 -0.0000 -1.0000
vn 1.0000 -0.0000 -0.0000
vn -0.0000 -0.0000 1.0000
vn -0.0000 -1.0000 -0.0000
vn -0.0000 1.0000 -0.0000
vt 0.260433 1.000000
vt 0.260433 0.000000
vt 0.348498 0.000000
vt 0.348498 1.000000
vt 0.436563 1.000000
vt 0.436563 0.000000
vt 0.524627 0.000000
vt 0.524627 1.000000
vt 0.612692 0.000000
vt 0.612692 1.000000
vt 0.700757 0.088065
vt 0.612692 0.088065
vt 0.700757 0.000000
vt 0.700757 0.176130
vt 0.612692 0.176130
s 0
usemtl level01_—_Pillar
f 1/1/1 2/2/1 4/3/1 3/4/1
f 3/5/2 4/6/2 8/7/2 7/8/2
f 7/4/3 8/3/3 6/6/3 5/5/3
f 5/8/4 6/7/4 2/9/4 1/10/4
f 3/11/5 7/12/5 5/9/5 1/13/5
f 8/14/6 4/15/6 2/12/6 6/11/6
